<mxfile host="app.diagrams.net" agent="Mozilla/5.0 (Macintosh; Intel Mac OS X 10.15; rv:130.0) Gecko/20100101 Firefox/130.0" version="24.7.12">
  <diagram name="Page-1" id="pxx3vV0jIXK9RhJgeS2F">
    <mxGraphModel dx="918" dy="588" grid="1" gridSize="10" guides="1" tooltips="1" connect="1" arrows="1" fold="1" page="1" pageScale="1" pageWidth="827" pageHeight="1169" math="1" shadow="0">
      <root>
        <mxCell id="0" />
        <mxCell id="1" parent="0" />
        <mxCell id="LQZRoXzbaS2SZYAO7yc4-21" value="" style="endArrow=none;dashed=1;html=1;dashPattern=1 1;strokeWidth=2;rounded=0;" edge="1" parent="1">
          <mxGeometry width="50" height="50" relative="1" as="geometry">
            <mxPoint x="523" y="640" as="sourcePoint" />
            <mxPoint x="523" y="440" as="targetPoint" />
          </mxGeometry>
        </mxCell>
        <mxCell id="4WLU9YgfCihyUKRMpBoT-20" value="" style="endArrow=none;html=1;rounded=0;curved=1;strokeWidth=5;" parent="1" edge="1">
          <mxGeometry width="50" height="50" relative="1" as="geometry">
            <mxPoint x="680" y="690" as="sourcePoint" />
            <mxPoint x="430" y="400" as="targetPoint" />
            <Array as="points">
              <mxPoint x="480" y="580" />
            </Array>
          </mxGeometry>
        </mxCell>
        <mxCell id="GQEPO8icPyQFYxT9apHp-19" value="" style="shape=cross;whiteSpace=wrap;html=1;strokeColor=#000000;fillColor=#FF800E;strokeWidth=1;fillOpacity=50;" parent="1" vertex="1">
          <mxGeometry x="433.25" y="441" width="41" height="41" as="geometry" />
        </mxCell>
        <mxCell id="GQEPO8icPyQFYxT9apHp-22" value="&lt;font color=&quot;#ff800e&quot; style=&quot;font-size: 20px;&quot;&gt;\((\overline{x}, \overline{y}, \overline{z})\)&lt;/font&gt;" style="text;html=1;align=center;verticalAlign=middle;whiteSpace=wrap;rounded=0;fillColor=default;" parent="1" vertex="1">
          <mxGeometry x="350" y="447" width="75" height="29" as="geometry" />
        </mxCell>
        <mxCell id="GQEPO8icPyQFYxT9apHp-23" value="&lt;font color=&quot;#ff800e&quot; style=&quot;font-size: 20px;&quot;&gt;\((\underline{x}, \underline{y}, \underline{z})\)&lt;/font&gt;" style="text;html=1;align=center;verticalAlign=middle;whiteSpace=wrap;rounded=0;fillColor=default;fontColor=#99004D;" parent="1" vertex="1">
          <mxGeometry x="630" y="623.25" width="70" height="32.75" as="geometry" />
        </mxCell>
        <mxCell id="GQEPO8icPyQFYxT9apHp-24" value="&lt;font color=&quot;#006ba4&quot; style=&quot;font-size: 20px;&quot;&gt;\((x,y,z)\)&lt;/font&gt;" style="text;html=1;align=center;verticalAlign=middle;whiteSpace=wrap;rounded=0;fillColor=default;fontColor=#0000FF;" parent="1" vertex="1">
          <mxGeometry x="414" y="559.25" width="71.5" height="20.5" as="geometry" />
        </mxCell>
        <mxCell id="GQEPO8icPyQFYxT9apHp-27" value="" style="shape=cross;whiteSpace=wrap;html=1;strokeColor=#000000;fillColor=#FF800E;strokeWidth=1;fillOpacity=50;" parent="1" vertex="1">
          <mxGeometry x="573" y="613" width="41" height="41" as="geometry" />
        </mxCell>
        <mxCell id="GQEPO8icPyQFYxT9apHp-28" value="" style="shape=cross;whiteSpace=wrap;html=1;strokeColor=#000000;fillColor=#006BA4;strokeWidth=2;" parent="1" vertex="1">
          <mxGeometry x="503.25" y="549" width="41" height="41" as="geometry" />
        </mxCell>
        <mxCell id="LQZRoXzbaS2SZYAO7yc4-11" value="" style="shape=cross;whiteSpace=wrap;html=1;strokeColor=#000000;fillColor=#FF800E;strokeWidth=2;" vertex="1" parent="1">
          <mxGeometry x="503.25" y="613" width="41" height="41" as="geometry" />
        </mxCell>
        <mxCell id="LQZRoXzbaS2SZYAO7yc4-12" value="" style="shape=cross;whiteSpace=wrap;html=1;strokeColor=#000000;fillColor=#FF800E;strokeWidth=2;" vertex="1" parent="1">
          <mxGeometry x="503.25" y="441" width="41" height="41" as="geometry" />
        </mxCell>
        <mxCell id="LQZRoXzbaS2SZYAO7yc4-13" value="" style="endArrow=classic;html=1;rounded=0;strokeWidth=2;" edge="1" parent="1">
          <mxGeometry width="50" height="50" relative="1" as="geometry">
            <mxPoint x="300" y="670" as="sourcePoint" />
            <mxPoint x="360" y="670" as="targetPoint" />
          </mxGeometry>
        </mxCell>
        <mxCell id="LQZRoXzbaS2SZYAO7yc4-14" value="" style="endArrow=classic;html=1;rounded=0;strokeWidth=2;" edge="1" parent="1">
          <mxGeometry width="50" height="50" relative="1" as="geometry">
            <mxPoint x="300" y="671" as="sourcePoint" />
            <mxPoint x="300" y="610" as="targetPoint" />
          </mxGeometry>
        </mxCell>
        <mxCell id="LQZRoXzbaS2SZYAO7yc4-16" value="&lt;font color=&quot;#000000&quot; style=&quot;font-size: 20px;&quot;&gt;\(X,Y\)&lt;/font&gt;" style="text;html=1;align=center;verticalAlign=middle;whiteSpace=wrap;rounded=0;fillColor=default;fontColor=#0000FF;" vertex="1" parent="1">
          <mxGeometry x="371.25" y="665.5" width="42" height="20.5" as="geometry" />
        </mxCell>
        <mxCell id="LQZRoXzbaS2SZYAO7yc4-17" value="&lt;font color=&quot;#000000&quot; style=&quot;font-size: 20px;&quot;&gt;\(Z\)&lt;/font&gt;" style="text;html=1;align=center;verticalAlign=middle;whiteSpace=wrap;rounded=0;fillColor=default;fontColor=#0000FF;" vertex="1" parent="1">
          <mxGeometry x="290" y="589.25" width="20" height="20.5" as="geometry" />
        </mxCell>
        <mxCell id="LQZRoXzbaS2SZYAO7yc4-19" value="" style="endArrow=classic;html=1;rounded=0;exitX=1;exitY=0.5;exitDx=0;exitDy=0;exitPerimeter=0;entryX=0;entryY=0.5;entryDx=0;entryDy=0;entryPerimeter=0;dashed=1;" edge="1" parent="1" source="GQEPO8icPyQFYxT9apHp-19" target="LQZRoXzbaS2SZYAO7yc4-12">
          <mxGeometry width="50" height="50" relative="1" as="geometry">
            <mxPoint x="540" y="560" as="sourcePoint" />
            <mxPoint x="590" y="510" as="targetPoint" />
          </mxGeometry>
        </mxCell>
        <mxCell id="LQZRoXzbaS2SZYAO7yc4-20" value="" style="endArrow=classic;html=1;rounded=0;exitX=0;exitY=0.5;exitDx=0;exitDy=0;exitPerimeter=0;entryX=1;entryY=0.5;entryDx=0;entryDy=0;entryPerimeter=0;dashed=1;" edge="1" parent="1" source="GQEPO8icPyQFYxT9apHp-27" target="LQZRoXzbaS2SZYAO7yc4-11">
          <mxGeometry width="50" height="50" relative="1" as="geometry">
            <mxPoint x="580" y="620" as="sourcePoint" />
            <mxPoint x="630" y="570" as="targetPoint" />
          </mxGeometry>
        </mxCell>
      </root>
    </mxGraphModel>
  </diagram>
</mxfile>
